<?xml version="1.0" encoding="utf-8"?>
<!-- Generator: Adobe Illustrator 22.1.0, SVG Export Plug-In . SVG Version: 6.00 Build 0)  -->
<svg version="1.1" id="Layer_1" xmlns="http://www.w3.org/2000/svg" xmlns:xlink="http://www.w3.org/1999/xlink" x="0px" y="0px"
	 viewBox="0 0 512 512" style="enable-background:new 0 0 512 512;" xml:space="preserve">
<style type="text/css">
	.st0{fill:url(#SVGID_1_);}
	.st1{fill:url(#SVGID_2_);}
	.st2{fill:url(#SVGID_3_);}
	.st3{fill:url(#SVGID_4_);}
	.st4{fill:url(#SVGID_5_);}
	.st5{fill:url(#SVGID_6_);}
	.st6{fill:url(#SVGID_7_);}
	.st7{fill:url(#SVGID_8_);}
</style>
<linearGradient id="SVGID_1_" gradientUnits="userSpaceOnUse" x1="-583.8376" y1="758.242" x2="-583.8376" y2="698.72" gradientTransform="matrix(8 0 0 -8 4921 6093)">
	<stop  offset="0" style="stop-color:#1A6DFF"/>
	<stop  offset="1" style="stop-color:#C822FF"/>
</linearGradient>
<path class="st0" d="M190,390.9c-76.9,21.4,46.8,65.5,144.6,23.8c-16-6.2-27.5-13.4-27.5-13.4c-43.7,8.2-63.9,8.9-103.5,4.4
	C170.9,402,190,390.9,190,390.9z"/>
<linearGradient id="SVGID_2_" gradientUnits="userSpaceOnUse" x1="-584.211" y1="757.714" x2="-584.211" y2="699.044" gradientTransform="matrix(8 0 0 -8 4921 6093)">
	<stop  offset="0" style="stop-color:#1A6DFF"/>
	<stop  offset="1" style="stop-color:#C822FF"/>
</linearGradient>
<path class="st1" d="M322.9,348.9c-57.8,10.9-91.3,10.6-133.6,6.3c-32.7-3.3-11.3-18.9-11.3-18.9c-84.7,27.5,47.1,58.8,165.5,24.9
	C330.9,356.8,322.9,348.9,322.9,348.9z"/>
<linearGradient id="SVGID_3_" gradientUnits="userSpaceOnUse" x1="-576.1069" y1="758.412" x2="-576.1069" y2="698.668" gradientTransform="matrix(8 0 0 -8 4921 6093)">
	<stop  offset="0" style="stop-color:#1A6DFF"/>
	<stop  offset="1" style="stop-color:#C822FF"/>
</linearGradient>
<path class="st2" d="M368.3,107.1c0,0-172.3,42.6-90,136.6c24.3,27.7-6.4,52.6-6.4,52.6s61.6-31.5,33.3-71
	C278.8,188.5,258.5,170.2,368.3,107.1z"/>
<linearGradient id="SVGID_4_" gradientUnits="userSpaceOnUse" x1="-584.5504" y1="758.252" x2="-584.5504" y2="698.698" gradientTransform="matrix(8 0 0 -8 4921 6093)">
	<stop  offset="0" style="stop-color:#1A6DFF"/>
	<stop  offset="1" style="stop-color:#C822FF"/>
</linearGradient>
<path class="st3" d="M408.3,431.3c0,0,14.1,11.6-15.6,20.6c-56.5,17-235.2,22.2-284.8,0.7c-17.8-7.7,15.6-18.4,26.1-20.7
	c11-2.4,17.2-1.9,17.2-1.9c-19.8-13.9-128.2,27.3-55.1,39.1C295.9,501.2,460.1,454.5,408.3,431.3z"/>
<linearGradient id="SVGID_5_" gradientUnits="userSpaceOnUse" x1="-585.503" y1="758.412" x2="-585.503" y2="698.668" gradientTransform="matrix(8 0 0 -8 4921 6093)">
	<stop  offset="0" style="stop-color:#1A6DFF"/>
	<stop  offset="1" style="stop-color:#C822FF"/>
</linearGradient>
<path class="st4" d="M339.7,310.1c9.6-6.5,22.9-12.2,22.9-12.2s-37.8,6.7-75.4,9.9c-46,3.8-95.4,4.6-120.2,1.3
	c-58.7-7.8,32.2-29.4,32.2-29.4s-35.3-2.4-78.7,18.6C69.2,323.1,247.4,334.3,339.7,310.1z"/>
<linearGradient id="SVGID_6_" gradientUnits="userSpaceOnUse" x1="-565.105" y1="760.626" x2="-565.105" y2="697.337" gradientTransform="matrix(8 0 0 -8 4921 6093)">
	<stop  offset="0" style="stop-color:#1A6DFF"/>
	<stop  offset="1" style="stop-color:#C822FF"/>
</linearGradient>
<path class="st5" d="M362.2,373.4c-0.4,1.2-1.9,2.6-1.9,2.6c125.6-34.8,79.4-122.7,19.4-100.4c-5.3,2-8,6.5-8,6.5s3.3-1.4,10.8-3
	C412.8,272.4,456.3,321.9,362.2,373.4z"/>
<linearGradient id="SVGID_7_" gradientUnits="userSpaceOnUse" x1="-583.1255" y1="758.412" x2="-583.1255" y2="698.668" gradientTransform="matrix(8 0 0 -8 4921 6093)">
	<stop  offset="0" style="stop-color:#1A6DFF"/>
	<stop  offset="1" style="stop-color:#C822FF"/>
</linearGradient>
<path class="st6" d="M257.8,278.8c-18.3-41.7-80.6-78.1,0-142.1C358.3,57,306.8,5.2,306.8,5.2c20.8,82.4-73.4,107.2-107.4,158.5
	C176.2,198.6,210.8,236.2,257.8,278.8z"/>
<linearGradient id="SVGID_8_" gradientUnits="userSpaceOnUse" x1="-579.0185" y1="758.413" x2="-579.0185" y2="698.667" gradientTransform="matrix(8 0 0 -8 4921 6093)">
	<stop  offset="0" style="stop-color:#1A6DFF"/>
	<stop  offset="1" style="stop-color:#C822FF"/>
</linearGradient>
<path class="st7" d="M365.6,485.6c-76.9,14.4-171.6,12.7-227.9,3.5c0,0,11.5,9.5,70.7,13.3c90,5.8,228.3-3.2,231.6-45.7
	C440,456.7,433.7,472.8,365.6,485.6z"/>
</svg>
