<?xml version="1.0" encoding="utf-8"?>
<!-- Generator: Adobe Illustrator 22.1.0, SVG Export Plug-In . SVG Version: 6.00 Build 0)  -->
<!DOCTYPE svg PUBLIC "-//W3C//DTD SVG 1.1//EN" "http://www.w3.org/Graphics/SVG/1.1/DTD/svg11.dtd" [
	<!ENTITY ns_extend "http://ns.adobe.com/Extensibility/1.0/">
	<!ENTITY ns_ai "http://ns.adobe.com/AdobeIllustrator/10.0/">
	<!ENTITY ns_graphs "http://ns.adobe.com/Graphs/1.0/">
	<!ENTITY ns_vars "http://ns.adobe.com/Variables/1.0/">
	<!ENTITY ns_imrep "http://ns.adobe.com/ImageReplacement/1.0/">
	<!ENTITY ns_sfw "http://ns.adobe.com/SaveForWeb/1.0/">
	<!ENTITY ns_custom "http://ns.adobe.com/GenericCustomNamespace/1.0/">
	<!ENTITY ns_adobe_xpath "http://ns.adobe.com/XPath/1.0/">
]>
<svg version="1.1" id="Layer_1" xmlns:x="&ns_extend;" xmlns:i="&ns_ai;" xmlns:graph="&ns_graphs;"
	 xmlns="http://www.w3.org/2000/svg" xmlns:xlink="http://www.w3.org/1999/xlink" x="0px" y="0px" viewBox="0 0 40 40"
	 style="enable-background:new 0 0 40 40;" xml:space="preserve">
<style type="text/css">
	.st0{fill:#4852A3;}
	.st1{fill:#FFFFFF;}
	.st2{opacity:0.8;fill:#FFFFFF;enable-background:new    ;}
</style>
<switch>
	<foreignObject requiredExtensions="&ns_ai;" x="0" y="0" width="1" height="1">
		<i:pgfRef  xlink:href="#adobe_illustrator_pgf">
		</i:pgfRef>
	</foreignObject>
	<g i:extraneous="self">
		<title>mysql</title>
		<path class="st0" d="M4.1,0h31.8C38.2,0,40,1.8,40,4.1v31.8c0,2.3-1.8,4.1-4.1,4.1H4.1C1.9,40,0,38.2,0,35.9V4.1
			C0,1.8,1.8,0,4.1,0L4.1,0z"/>
		<g>
			<path class="st1" d="M10.7,34.3H9.3c0-3.3-0.2-6.4-0.4-9.4l0,0l-2.1,9.4h-1l-2.1-9.4l0,0c-0.2,2.8-0.3,5.9-0.3,9.4H2.1
				c0.1-4.2,0.3-8.1,0.6-11.7h1.7l2,8.6l0,0l2-8.6h1.7C10.4,26.7,10.6,30.7,10.7,34.3"/>
			<path class="st1" d="M16.7,25.5c-0.3,3.2-1,6.4-2.2,9.4c-0.7,1.5-1.5,2.3-2.4,2.3c-0.3,0-0.6-0.1-0.9-0.3v-1
				c0.2,0,0.4,0.1,0.6,0.1c0.4,0,0.8-0.1,1-0.5c0.3-0.4,0.4-0.8,0.4-1.2c-0.1-0.7-0.2-1.3-0.3-2l-1.5-6.7h1.4l1.1,5
				c0.2,0.8,0.3,1.6,0.3,2.4c0.6-2.4,1-4.9,1.3-7.4L16.7,25.5z"/>
			<polygon class="st2" points="35.1,34.2 31.1,34.2 31.1,22.5 32.5,22.5 32.5,32.7 35.1,32.7 			"/>
			<path class="st2" d="M30.1,34.5l-1.5-1.1c0.1-0.2,0.3-0.3,0.4-0.5c0.7-1.5,1.1-3.1,1-4.8c0-3.9-1.1-5.9-3.3-5.9
				c-1,0-2,0.6-2.4,1.5c-0.7,1.5-1.1,3.1-1,4.8c-0.1,1.6,0.2,3.1,0.9,4.6c0.5,0.8,1.4,1.4,2.4,1.3c0.4,0,0.7-0.1,1.1-0.2l2,1.6
				L30.1,34.5z M25.2,31.8c-0.4-1.2-0.6-2.4-0.5-3.7c0-3,0.6-4.4,1.9-4.4c0.7,0,1.2,0.4,1.4,1.1c0.4,1.2,0.6,2.4,0.5,3.7
				c0,3-0.6,4.5-1.9,4.5C26,32.9,25.4,32.5,25.2,31.8"/>
			<path class="st2" d="M22.8,31c0,0.9-0.2,1.8-0.8,2.5c-0.5,0.6-1.3,1-2.1,1c-0.9,0-1.8-0.5-2.4-1.2l0.4-1c0.5,0.4,1.1,0.6,1.8,0.7
				c0.4,0,0.9-0.1,1.2-0.5c0.3-0.4,0.5-0.8,0.5-1.3c0-0.7-0.4-1.4-1-1.8L18.6,28c-0.7-0.7-1-1.6-0.9-2.5c0-0.8,0.2-1.6,0.7-2.3
				c0.4-0.6,1.1-0.9,1.8-0.9c0.8,0,1.5,0.3,2.1,0.9l-0.3,1c-0.5-0.3-1-0.5-1.6-0.5c-0.4,0-0.8,0.1-1,0.4S19,24.8,19,25.2
				c0,0.7,0.4,1.4,1,1.8c0.6,0.5,1.8,1.4,1.8,1.4C22.5,29.2,22.8,30,22.8,31"/>
			<path class="st1" d="M36.7,18.5c-0.7-0.1-1.3,0.1-1.9,0.4c-0.2,0.1-0.4,0.1-0.4,0.4s0.1,0.3,0.2,0.5c0.1,0.3,0.3,0.6,0.5,0.9
				c0.2,0.2,0.4,0.5,0.6,0.7c0.4,0.3,0.8,0.5,1.2,0.9l0.7,0.7c0.1,0.1,0.2,0.3,0.3,0.4l0,0c-0.1-0.1-0.1-0.3-0.2-0.5l-0.3-0.5
				c-0.3-0.5-0.6-1-1-1.4c-0.3-0.3-1-0.7-1.2-1.3l0,0c0.2-0.1,0.5-0.1,0.7-0.2c0.3-0.1,0.6-0.1,1-0.2c0.2-0.1,0.3-0.1,0.5-0.2V19
				c-0.2-0.2-0.3-0.6-0.5-0.9c-0.5-0.6-1-1.2-1.6-1.8c-0.3-0.3-0.7-0.5-1-0.7c-0.1-0.1-0.3-0.1-0.4-0.3c-0.2-0.4-0.3-0.7-0.4-1.1
				c-0.3-0.8-0.6-1.6-0.8-2.5c-0.2-0.5-0.3-1.1-0.5-1.6c-0.8-2.1-2.1-3.9-3.9-5.3c-0.4-0.3-0.9-0.5-1.3-0.6c-0.3,0-0.5,0-0.8-0.1
				C26,4,25.9,3.7,25.7,3.6c-0.6-0.5-2-1.6-2.5-0.2c-0.3,0.9,0.4,1.8,0.6,2.3C24,6,24.2,6.4,24.3,6.8c0.1,0.3,0.1,0.5,0.2,0.8
				c0.1,0.6,0.3,1.3,0.5,1.9c0.1,0.3,0.2,0.6,0.4,0.9c0.1,0.1,0.2,0.2,0.3,0.5c-0.1,0.3-0.2,0.7-0.2,1.1c-0.4,1.6-0.2,3.2,0.3,4.8
				c0.1,0.4,0.5,1.1,1,0.9s0.3-1.1,0.5-1.8c0-0.1,0-0.3,0.1-0.4l0,0c0.1,0.4,0.3,0.8,0.4,1.2c0.3,0.7,0.8,1.3,1.3,1.9
				c0.2,0.2,0.4,0.7,0.7,0.9v-0.1l0,0c-0.1-0.1-0.1-0.2-0.2-0.3c-0.2-0.3-0.4-0.5-0.5-0.8c-0.4-0.8-0.8-1.7-1-2.6
				c-0.2-0.4-0.3-0.9-0.4-1.4c-0.1-0.2-0.1-0.4-0.1-0.5c-0.2,0.3-0.3,0.7-0.5,1c-0.2,0.7-0.3,1.4-0.3,2.1l0,0
				c-0.3-0.1-0.4-0.6-0.6-1c-0.3-1.2-0.4-2.5-0.1-3.8c0.2-0.5,0.2-1,0.3-1.5c-0.1-0.3-0.3-0.4-0.4-0.6c-0.1-0.3-0.3-0.6-0.4-0.9
				c-0.2-0.8-0.4-1.7-0.6-2.4c-0.1-0.4-0.3-0.7-0.5-1.1S24.1,4.9,24,4.5c0-0.2-0.1-0.4,0-0.6c0-0.1,0.1-0.2,0.1-0.2
				c0.1-0.2,0.5,0,0.6,0.1c0.4,0.2,0.7,0.4,1,0.7C25.8,4.7,26,4.9,26.2,5h0.2c0.3,0,0.7,0.1,1,0.2c0.5,0.3,1,0.6,1.4,1
				c1.4,1.3,2.5,3,3.1,4.8c0.1,0.3,0.2,0.6,0.3,1c0.2,0.7,0.5,1.4,0.7,2.1c0.2,0.7,0.4,1.3,0.7,1.9c0.2,0.3,0.8,0.5,1,0.6
				s0.5,0.2,0.7,0.4c0.3,0.3,0.7,0.6,1,1c0.1,0.1,0.6,0.5,0.6,0.8"/>
			<path class="st2" d="M37.7,34.3h0.2v-1.5h-0.3l-0.3,1l-0.3-1h-0.3v1.5h0.2v-1.1l0,0l0.3,1.1h0.2l0.3-1.1L37.7,34.3z M36,34.3h0.2
				V33h0.3v-0.3h-0.8V33H36V34.3z"/>
		</g>
	</g>
</switch>
<i:pgf  id="adobe_illustrator_pgf">
	<![CDATA[
	eJztPWl308qS85lz+A8KELDj2Fa39pCFxFnBWchGCIREtpXEN7ZlJJvlfZjfPtXdkixVywsX5s19
c/IWY3eXauuq6qpqKZqfOzopr7f8hlfWKqry9Mn8fC3w3IEfLCl8WNnrdIbhIGBDheOiQqyKyqDW
9+zrCPLcC8K231tSKK0QMbvNri+sh8NQIUWlUGRjp+1Bx4PR7s/wa6cSfrsrJtTg6k13AJNErTpV
qlJVsZZUohztcxC3980Nw/a/GICp2Rob3PCHvVa7d7fh/1hSVPivzv7HZnbbx16Ipysq+49mE910
LGqaI/BNvznser3BUeA3vTCs+R0/CJeU2k+3p+y7dzDjKhsdt/kAwOt7xvV2u+OBeF13oBCNS7u+
R+j1xrDdaR0Muw0PJNcI5ePaNUd3FgIeQMm+83Hreq8LQyfeYAA8AjXOyfHORpoJIZaqFD4de3dt
vgSgp6tijDnw+103eAiz4rOpU6/b74A+ufBUrRgKceAj+RaDgSQcpExtUylrlqloFDRDzAhgpBrv
W9v7vqQc+D0vUsN6MDgRK6Lrqio+o6njYccLznrtAbAmUDlCD/t+y+vAFSMU2x33LowFJaPPCOLU
De68ASyn3xkOuInZCRXQdd396bG1EgiJdb0BiuoBrd4AuL5u315/E6Z5fTdYIlYE51wf9r3eqX/O
RSo7TGQLJkEGS1Vsgygwwjgxwdj1hDcy+ozJrXcGXtADRcck/zD+rV7rOnIur5WhYXAajEKsA4tZ
0BEY1WHQBiUslXWlbEbGthO0WyNbs6hiiw+u6orNXUMlxKGqQ51ZRxz+H8skBjgVnWUk0g6s+QAE
SZaNXtf2U56gVvZPmCwgfM3vMvMLub+zpQX36Ph30ezoB58DFMN+pBxhB2CtR0G7xxA/fXIg5uzr
o84QJncCf9jf6936T58URJw795oQy8CkW8ph4y/4AXGLe6lyGrhNwAG/E5iK2+4XpyAEOQNPEbNw
Lf8Z/zvL9ZveLYSZEQIxutX75nX8fgqxgJsF41HH7bmBwicShPX2N5hxQU8jlAzQG1zMhBOsrw9q
4Vg4DMI/ASA1NQupersnoeBjbjD47gcPbMFGm1XF++FNw3jy4A2a9xhnNPq3sR65g3vYMrxeK0y0
IH6ONMy0LsZmkbzmdjrtu8Dt37ebykYwDO+VU9/vJNhz5hNK6Tk+xa6chejJz27D77TDbkImPXIE
6mk3O97Jz3DgzWZ9zO2D3mFP6EeWIgLAAsA2Ia75Je7/vdSSq/IoweR/EpWTJtdMHo3sVEInGv4H
UokXeavVBucdE6Amwpx8dyEY1NuNKY7K1Hzb7rWA75Nhe+CNfNPv9lkyqpzcu32Pe04MeTJCafDN
PrVjlctT9zJHzLFMbPCz48E2WX3X87/3+C9lCZj6BHuDO+wMropK9cDtesoiwJy0ITv0EiBVOWQf
ozSEKBcuGzmGj4qlQ7oMSTP8qzumAZu6aTnE0alFDFPXbZ2PqDBn6tSwHcNkyYGjEt2wiKMaRDMJ
iZBfrDO0ya+f7Ndb+PYXjH2H1F/ZVz5dqUrrKUwCcc5JCxgWm9Prp0+UKsjDvnDhQWEp0afr8Mjt
QJbhCWGPGn9aOpymc21e/IutAs7fj5rw/40Rzwlnv7bgdUCaWWRZMQLkb9oXUcWkCPsM1X/F44AM
j46jEDEd1xJQ54F1zV9X4wFmg+xnu8nU4wY/o4GL/foB1Atjpl8rhR/dTg8AyuC+QbsxHHiw2y5y
4PUgcP+taP4QlRRc8x7KycDrRVBUqe6BqpJp9jH4ycIJny687IXX39wgfA2OfgIUendZ2G9uZ5gA
s4lwDGAPokQEF3ETZn/+x6uq0eaNATKLpkClUFYccJ3MoK40+OI/QtgeVI6zCNrxmw9eayYhY9A/
aRS/rwgyWRGzrXXbbXS8mTxjltX9P1/8Xw8KS99mDwsM9p9h5EzOJhRofvcfEP7+V010KXRZ7sb2
UAg0s1vqv8NvgKF/Gj//v1w5vP3+D7Dv/4BIHnbazV8I4/+rrNx+/0fw0fUGbguixh9gxvltZp63
otR/JiNNQfMhValuQPUP5fUeMZVb0UyGqtuFokNxO203zAFUU4D+cNBhXUOoyPwHb1bogfcj5kAy
es1UqseeCxf33VYLI+y64cNoIcVY2PcleYD3mBkrjgetfrsSjenRUNPvBCPtrO8p68OBrxy74cBj
nekccYgSq1B56EH2BiIpd6K9MQm2HfrsEElpsDYl739jaEfpu33QUdjuDju8ukXhjIFA3dsL+y4Y
UPMnkG23lHDEJkkBusGg4btBS2mys6IIwKA6tccCKRS4SwxrKuxd4CVmPBU4SJJc0zA0YzwoSfMw
FTbNw1TgEQ8ks0ZHgRd6wTdPOQWr5I0rt9HutAc/Y2h2SpogjittcY56kjESDsKOEtcDz13nrfi8
oI8tPjGCvXA9YvrE63jNgczwCCLqU6TqI5tYROEf3H+O/DY/37pWCvwMURxlIWY322G/4/7cd4PY
qwoxAXbWXD3rtZsQROLAkqJGYi89Wj9OkOpqivax1zn1jwVZwceRH7aZ5HyaxK7I+j0zX0WlyBrz
yzWcs8Dp+NOPl9r/5gV91loJp1zR7LT7YEEsUfwBFnQHfCSXqGpiFZlrAh4+yt/4+ZbScDtur5nE
60/7Xqs97Cqjc9grWc/cLpOeDj+MU7YT/NxgB0p6MQw1Xg5m+vteeJ8EMR5KUuSiSzQ1c8nhcNCH
SDblopTAEn91t3c3ZCd8R34/iYbUpCSOtakDKnaGel33bgc76SBiRzcWqColhpHYV85lWz8Goz1M
o5ZpjaGx3fH9YCMV1dRxaDnkYd9tphx/LA81r9Op+cOEBToe7y474vR7u1777n6QSOrYZIJWUgxP
Fe44CRIz6u+YMZJRoE0cCBy6LgcOfO3JwE08MXZfe6zo7EQdzBlizCDlAZMk4rylbUKfLMa22/TW
e3ed6cvL1JpdXW0sLFvdbGCfZDK3t6GXKMOwrXHmzqFnk40xi0VTJ6lsI3/PzIVNGcxYyThgVl0F
cT9SKst8WN/bHnY6cRiI7q2A2Skcs5tZUsxO8IMRq3QM1OkoV2YnHFPtt+nOplB+Zn/eDtsiE2B2
P7qubKjqVFKwj7nsB1/2c7fXDu9Ba2nPsXWNxA5LVMtWbI2Y0/Em7DEzlf3YcmbwY6ZcjuPU76dZ
siyiVpzoRhMbDJSjnAVbvoQzMzSSCnE0dpVGKc1er+X9OPGafq/1ywEtUcSGPxj43YwuHCPRhe1Q
bbblSRDmr85MTI2UIXM1qz6220GYUDYtktkZZlpVzkXuso7jgZv6RM8Z7+oTLivo8b6WCj4n5zv8
pr0N/8eHdmtwPyNsZhvO67ckJ2swVd360feDAet/rYcQ5MN3XhINYzLKGHps7wN6Fx+TfBX03fSD
ltfKIa5UD/xBdp6kK8OeP8pYlXaPJ6QsK/byJMlHxjVfHbWRqn/5jQpH6HY6ca0Up7YjWaQrIMOD
GvQOrymGCx/a/QasaapYn8jBFHSBx24+9JhI8fZSkNNmfFUs1iwMQ5XYGdnc66Q2ZBp/6zfYjQkK
0/LkPD6VwFNlfW9i0p7tvbDeA2u6rLOmy6hBkK5LOMYaK0hqUUFynC1IMOxh1G45GducyYCdjroy
1qiSFjCiMKiKe/aUjUxNQxDsIS6upiuLKFtHJ7+gLQY9TV0C54z6EsDTFZaFG6MxATSjyiKMOQUp
h6gDlrjE3dvMq/eE0ncCt9Vm1Zjba0UF4MSST1zF7/hjNzuxq3j/Q7oqS0tw+8vExGUzUEvp+sT9
5u0PO4M2LN06ClAJmJTh3fvfd9stDy+xBNdz+zMGz3ERo9EedF3WUUD6ygHv33UfKrCNeC3/9rYy
DD3YZjbYz1iepOcpXcXvSmdXNXgugGuS8VQy8DSHqR/9SjjsMwHC7/ewl/hJC7NCjbH4W94tM/3v
6U13ciTml4HCBuyRhQlRmMMFqbt7psHyxl7DDcJpgGzTakMAn115A78/AWmzW4k7Sf7gPtmR8lY+
Bdrs/nyQnSPDQ1gJ713Y4ryJIgGUN2Dtph4sHW7HIUgElkQpZAjZJtUYqh3C8g53kBYiD1kg+4Qx
BvROAh0DCNk9RMhB6uAgT9sjQHEeMQUUtobJVNkxiJvdYcZA+v2mPw0inKRfDtEa/lKbEF3fy+yW
EgXIg8KK12PpbGsa2O2w15xkWQIo2q4T65oSCPhFbq+XnNbkp5kcTNyCMNmxun4S5wvh8c6GsrdV
M4ljmmVayWleS27p37aTgJQXIAEINmRPLnyQXzCvYFF0SshigL0Bv4doLNBtbwBBuRFOpMhjXzAx
Qo2i2S/EaKHzlFLGYg7Z7ZCzR9MOFHizb3Qp6DF67Hl3bupwZQaco3g+A3CQqhFnkA6B565pq9MP
bn05u5PhUkatjQnDUAt1JuABkEabZTPTVlGKBbKkzaBVYZVnx+1Xvs0KeD+BMIMbQImfzthzgcJm
szfRDQRQv9NM2vX5m6qAczteIsBUwPupkgZ3M6gDgGJMedsug+lHZ1tT5ISUq3/vB/+Kd3E6DtAP
WFo+LXtqdoJK0k9osMcxpwDHm2rfH0zKTBhoOihPr9CnbFmjDkEosu1ZYKeF9QSwwZ4kmCQPg2x5
YfuuN1WjkEdX+OH8RKtgUPd++sRgPNz3GeHuvWnhSqBLJ+yb3i3k8C2l8VPZDCCQBlN2B7g+tVKW
Q3OjIkC12TN+2dLDJFOgp4fbBDSTlk8CTO0hE7jNqG4Cn2nd5UZcgGmJ8/hJMRegMmnNFP8IB50I
vt9vTaDO4CLqI8AZcAMwc9ZOamVnuYp5DntQtzspu07zJC5IEtvUUzSTEjS/w+6AAK87yNzAlOrK
rcfQ6b5cqn8AQTI5oj5q//A6R15w6zXxEp2c72yebo5kEZfDKLsV6B1ImjN1dHeLhIfBrW7Da4mm
T84lrN0hnh/DnMLkRRLZaApfD5Qz2ii10Qx/GiVz9JVMHQVesx3K3QiY2ob8I3WRmmFOPOOef1Hd
b7p5LRqmI/ZUFluhsO9Kza3o8hPIZ8UTyckyyk2W1HNI6OEWtuLiqRemwnjy6ZMqm0gPsebN+klt
b882Nj1mVxxzadW4sUpr542qWi3tl0tr9wONfaP68vslLZl4n3zjE6+1tdPBxuats/Ow+/x4xd28
VT+uJrO0tHJs3s8Vtd2VuXL11TGQmSutPizPFQ8unbnF+zbM3dxW5krDpZO5xf2Lzbmyuk/V6srH
AqdvzNWK7/WQhvvA3eaDvnZ4s6pt2JptXprdy+XyzbZvfdDU1mhW3b32akAmCFZXGuuL/YO3b945
4aq9u/yhsu1f6udbwedLdfNy++Pp9sr6SpMsrFs9tXronZVWP15R9e3RcU3dvTGq9GZu95Asvro/
T3OiLx6rVf3kmCsByDBJX3KA1X5xuQ98nPQjPtzjjejbzds1zmClGhq7q+Z8bQj0vQ==
	]]>
	<![CDATA[
	i83nreFW7Wrn+MI8qLWevakOlt++qYat19vO84ejrQ9vtC+vL+u9VSCz0zm/+Ly+a841ANH51xjv
fIcxUyClB+sVU9qXN6/rcwGA7PfWu349XH/34cN1aev8Ypd9uymtHnUqcNnzxdLqzruXAPcxUL2j
yku1OihUhAlcD9S3xjzIZVRexd9IQW29XCxEqjKsBYbjFXGf7fXh58oi/0k3Lj4F8LNWiS/brm5v
0X0bkO6qpc3F+eF2YXdvD8gwrV7HrL4rjubIojNwk4lSeqJeaiYT5fTEF8tLJqqITL92l8yR1EU7
G18XYOxgIT12VmjEwAeL6Yk7vZVMVEqr28MO2X3xRq3ee5svGJnd8rbG5khpdcV/ILtrx+zn+zTy
xl2pwsYWBUjzhbUk3GN1cd9nprVBmuUVwkCqsEovu6S5tsc0914gZWSa7884Xvh4vvyc6bwExh7M
cz5osayXYfY0pRtaXHvzOvHR441O5W5h/ah5W998tzd3MjJLvrilDT9kfsOwoY/jxAE2aHF3e/mX
UObhY5aWQvm+vjKKJMbg6IW3c3Vp362fDF+0ty5bRyqTi4zMmF4Nv7yptd0qUasfv2ixkZ3qKdE3
16wmkInX7UOZq5Fuvq9V2c9q7AAfAHnjqsi+gaZXt5gLfKCMc59905JvukCw9bprws/LCN91c1sT
fnNZjS+/VJNvKZujN/RLO2bnUktPbD682Go+fHXU6sNfRizNpSnirFp8Yau0czIPZLYWnSK4uHr+
Ih3vbgpdEZKESKMPxkStvHCsh9qL93DFVWVEVXtZPGR6vYKPjx8K7Bvh34Q0VzQNun+nszEdccTY
eb99c/6xtlmyi9vbW/vndrRrDLqG6jWWTGalFe3F8vLN9nXx06XghIEAmdV+oXXK9HsQucJKf54H
WGEWGx9LW1zMVWf3xV8owAfBmvVq6aVP9a0PG1/PIXQubJYcQ1+Og2h/DSb23wKZzaF7dAhzK2vb
zovjVu3q7fPd1a8vunX6avXZprBWFr/iRXvbjeIXcMxdC+Lc2yJ3txjk/Cuz7wpTM9PcZ/YcMAOo
Jjb6GX5aAQ+dEDWNInys9DOh80TnyNXbpcLXaPWNN+Vqe6VRVG/r+iVEhvMoOHtH1jJbSOae6u3Z
0qeIj+SDzam3X958xibAJliwrebE2ZIIsTHHV1E4X62VI2kK9CpsPGx0nvW2s1EWTMY6363dPKy3
tLXz/kbkijtLRbZA+7Bd1y1QkE2E+iCw2rDCd4cisPIACDHVEJbGIiqPmi/eVDffLvsqIDpUGf2i
9uL13XqM/IyyMaa+Ui/ai5ktcdFbrz7VRlsim+2P4guTpvXy5E3GZXCYOkglKy+2vhjgUMeDIKDh
+4pWv12OU556yMbKMGYPBfDLpv2OkTkEMikcc4NCmOA4knDoCzsVfXe9q7bme5tBsOIvcH7T9r1c
ZinPTofnDLTgfNR4GiSUxlMJ8/nc/MaLzRhH86WEY6OawkG2L3bIyL9A9EpXJFosXai2V8+Yux35
1fbi0qogc9KPh8+/8mGeMVTbh71S4tPvwAQO3mUSEia1XvwMUjtzXB2l5dfdY+ZQc2zigk085xOM
zOvO2QHXYBQFYHsVIg1vVij3R8b+/cKbDwsu2fpc2oYJUuGs8oliYe1TZ5QicncTi6BZhw8g4cWQ
p4N0SBjhZ4Kj183DfZb1PWMcfcws0H5xpLSLOb+6BSifbYE2P37iquJUC40Xx5/BZfQdwU4U02I9
kH6ihy9pPdC794keLkd64OyklfBg92MlvNFSSphfnrthuUCkB7060gPj6GGkB0jHPpaRHrAS1pYe
erESFuazSigLExB6EISFHqJlmaCHWAkrg9gFhnMjJczp4aeXI2MAMmk9ZI1hbeloENn3RvFdoofd
q8qzv85iJVTKY41B9dzrVxwBM4HhzRIZY1ATcfzlFeLFmIaASZOLI3wozoojF8Htq68LI7cQa/OL
nqHekmelX2ICyEg4lgqLvydIrVJG/h0rbXZB6nrl15lg7pnCcbZU/S3Tgv1WzUMAZGbFwbbmwlg/
n+zk8UZAFtVe8W/iiBA4g4XfDDZksTZfysUxo1nwaq1eWpyKI82EpM0zUp68pDwKuMsHIxzapw6x
0zi+WH/DtNII7lZ4X+C3cPRr6lRNkKhgH4Oj/GKPcBzhs53djRiH+XzhU6B9TcFBKVyM4Lb/IiO4
ef1g8yZraTv1Z+MNZRa5IBMcH4BSljYRx5dKvpXMaO6MDGSfUwxlGhP9pSlWIvabSThYwvtbfrtb
3lYTS/ubguyadTIDExlLk/hYO6ZTmAhWqyRBsKsPKmfLKQSNL/MLqU36bymjcVcqzcpEtN/IfPTJ
b5kWa+uUR2YxfpOetCLN8kpl2pJmIhiQwUGsadaqfycA8eYmlKw8dxyVx/G2ZpfnmvrmWun6Amrq
nTpU0pC2iXofStek4fgZ6sZWKJpaC+uf10upEnvnQ4GXlqlSdOvL0nJU5B167EHGqBq+eCjT693W
olp1v5ZFj+sqvC/zjgIvGbW1s2e8m/kKPl7Oi2+tl4S1KPWiqLO3Pr/x4edSSbQoX60cf+XMRiXu
K0DpifblqKBhO/uobZhmFbbam2Qi3d6D7S/pHb5bRE3IM5K0D99V0hfdrdymaurRBITu+6ThWIwK
5vqzpDF6kG6MQjxMN7oO0r1RCFOsx3OQtKYOVNFcBLdnqdcBFcjBARPk70sCBJyBGcj7clIRsF4n
GEVhlw1Xoi6lWWOI3qultcJmQJq7h/xnhLd5+YlE/eWP26Xq/skD86pT0QOgRXMpUcxpZdRbYmsT
t5dyul2i532c7XIkPa7Tak6TKhcLb95PQKSmEJHq83C5dPY6MFfP9IN166pViHqXlydzkb1+/EQT
F7gZWRNTWnHYekg6kYvpLuXuCktzP1Si7uTlnuiZ0M3moRF965zR6Nvw0xfe76BbRfc6+kbvDIZA
NFN4R/LyDUN5CR8N6tPrTl00qun18DhCflO8SOzrkqY7ka9bfyUTetIaamSlufkwV/vlFvDL5AO3
lLX54V7SW7qqxu1u7SU9Ey0y7eXrT0b0bdNNeqhXmogCL8+765idw9rp1fZm51lz/fj086utRvnN
B9aVWmYRpBq19wZ99neKRbtVBLHtayPuRPqM/epLEasi59nvRVceegtCka9WThai45TtYYeHJ9Z+
UKPw9GHLjZXGClG2LLsF7jesHlxkPxcELajMqnSz/KnEj1OSU5MyPx7gZyqrzs7hRWKqRbJ1Fe7w
IxaYODviAVDENBYI3YtNmNtTYe7iPYwVX0YffGJV5wEedplCYSmKvKtLXJACROPWJ840S8dZAHgn
Ot08r+X9Oe43q9uVxNivtBfOQ0f0CVHoYh4kNgKIX5VIwp03pVGfMIrQO9tl1m1Uowi9U+c5tNF4
txZFLd4iNOsj5KPQVY5saf2/V58+EY/2U8LuxRw96MXON19HB6FnvZa/HXje44Ho44Ho44Ho44Ho
44Fo6fFA9PFA9PFA9PFA9PFA9PFA9PFA9PFA9PFA9PFA9PFA9PFA9PFA9PFA9PFA9PFA9PFA9PFA
9PFA9J96IJrtdkmNkJmPRlPV2swo/8YhKZDJOyf904ekbG1yzkn/9CEpi2k556R/+pCUxbScc9I/
fUgqKgLpnPRPH5KyKJBzTvqnD0l5AiWfk/7pQ1KxrUnnpH/6kJSfrcnnpH/nkFQ8QkoIe4Y0+6go
f8Ot9Epb/rJf8WY8knpdsuUohNoKNQz4YbDReuPpkwKHZn8Tvd5jL71b33r6hP9Z90He603O9jaV
JUVccw3XiAeXVfaS5rPkj7gxfq85LvZx8Z1/9Z4+GT59cjYD8usfWu2a/00t+LZ1PYZI+hFk8Ypx
r7Xxc6/L/rBl8pzyf9Tr4X7/pSjxk9Tj3g/D36kuP54+/hUc4q9S/QPeTBL9ibVJnP97GWJWd3rf
Drc63szvKJGuSXuLoxSKysWH+E2bFVvTHJvYhLK/bWuxl05alqY7hmrZqm3ahha/r163bWrblqoa
Nnh5hdpUM6ijE2KZusVGNEoM0zappRuqY7N3VWrOaCh+jyeLEHSWF27qFVX87WBVNzVqWOzdCN2n
TzRDvMjbsggBtk02XIdhu0L5n5G1TOpojiHeQK8kw6pumbbGkQAGR4w5hmZaugJJAYOuEP73fUFI
0IdmMqwwTMTbxjXVIJZhgegSpegP2Go20U3HoqaZUCAGNWzLdnJAajkCylDAAkHvLRdhtmLxMapZ
qqnyQBths3VLJ5SoDqOQI2udj2KtxPgcg2rEhOCtJwgz+s/jWuj/dlzAtUZ/y+Cav3M29RcURgFc
RG35va8ErEj8AWnVoSYYkVGxUsrXDWYSTkUTfwPcUcF0bVMGqucAOYojVjxWuAbbVnZEsSPtGRal
qm7AxmYgCNDIdCAgb0YvrTdNsCKq0lwejVmANDyWR25GIEMAMTs1wDhAfq4kQnRdB4UrWkXnEDZR
TbAMC1RGs3glCIll0BDFNpMnF+g+vdI60Mo4EVGAOwFhmA5EIxBKEwpL+KVZawGJLMFf4oncggUa
k0B0g5gnA/H1QkB2hhSxZwayZyEHdi5UpFPLcowcxgVQGpXG5KfpOKAwd8msspMFEBCTHQo0tP0b
zkzMDEKgqFe4l8JEViJCMPcGutSWHFSPTFZEMw24l6OeZBVg51kggFAzaCiOp1IkkCCaQCjaG6KY
4uSgISA7zW5YOhc8I6eWJwUGkgJ8nQPpqdhjykAAkbUITj6rH50LQzE9pgR+LdE08CU9BznFmCpG
tAIkeyHyZGa4GWKGZKcyhGynMZ1EOGRiRF5pizGdjtemYuVhxooFy5P9kaL1zwXSEDkH88iAdGnj
4ZofJSMAkdWHhfMSGYILoqMlcqRwZKDrSJxyJGHGQF5HdBSIauP8/rczAzVSMQjgUODfiQpNlj5q
We/nsSxrRSxfJEi1ElA9BwjCr5ig8G/mh4UttZ7DyExAeYyMVZY5axq1MGQV+SbQUyXBuUKojSKC
icNjnQNlV9PEzAJE1kpMHOZgraycwEYdKcoj+hLnsGnx3AD2fMNwVBsgEitN6oAaE5nvIXxYow7M
ODKfsJoIQrJcDAHhkeK9SUajyxCca5asUJ1SBpFNr8BnaAYHU4+Glgf8CBHCoZGFwSwhDROCcJZx
ekEoi8YRijJsIK1pKmFojFF4g5Q5SmVSEDjmSEbACGHFmNgqQLlZmY0suxpbIwyBjIYRyhmmFlKF
IfKfSFeEQ2TZk/wyz2h1nAjXx3iccGqVeSTFkdbGSLpcWzhgo/0CIJCF4KxPNkWCCtK8ZSFom2bL
ItlrdkBaFgmCuQ5eAhmNhWQmuICGklTap2o8TKGMWFek+CZlKQARpWYCBQ9BnIkMLksWTziOKcc1
pqrsxQzj1PUWufbC2G7lDFskRUkn1LXdnFEplQaItKvwPSvLHAQSM9IR05UhlWOq5A==
	]]>
	<![CDATA[
	OKBWB2mRDbL00hHTNs7YxO5q5uVg0oLkVI0EW4C09RK2DaHWDnBpZjYUsbAq3saZjFhLeOVViUsu
MOgsu2dZkv4IYt3GrOdAyFWIBOQw0yPypkml8hELV+P6xN7D1YzXApxK2u3QhdJGhgMticsFacLA
lSFSHgshKEWwcXWJMpZIOBRnLKwSB215TCysRSoJnoHga5JzIZE1liVOcfslTwYAUrMcov2Kp28E
i2Ei06YEozGRzkFQSaNZiKZwmclomKulnE/nS5dRDHEwIQMZG48fWO04ZwAISTESIQShI9UJQhJQ
VnUyvxpeSEkrWhRfkCood1VslLhk/8hXnfdusuxKUZ6o8pjz2x0dlrtkG/caTpn5DsGqLZN9zbIP
hU9WX1LE0rLrwHFk3RsWBoCy0QqcTIsK0aQIyB3D+5RAJgFlmQSIbMqcB4EYwqGhxgml803KrMfB
aLKFTOwxaQVKFpgNFDVeXtKMDglqbzM0fANGzTEDM4h3gBpfb8SBjTvFJlKXtNNrJpYTh31GyEI6
JaJTbWEmTRQiNAuZkNSP0CxMH2d3gv4UIMHNdFoShMQvksiSTxY0C1mptMkKbqS1kTSPuMFLrJmY
EC965WVH/WRmPfhCrAoDF6cqwiGMdwqQaKBIPoviCLblPAgb4zAiC5c4kHQkBQQJQkKeZ+FoJ1ax
R0p9gxwISRNSfScD4S1fGA+iFbWdqWmpsE0RReaXoF1MFjun2pQsjO1oGW7kpdEyabuuSCGOajmR
3WDlLx9N+pVypMZ9C4BAqHXUABaxPHsVxccRmp4zpmG5cOHNuNaw5eLzOk3DMhiIQ4BABmogu6lx
QmjBzWyTX6OYXXwSpVHMK94MarxXipiRNh6KLQLnVRrFvOK9s8Zbt1k0Wpwg66w3TgzWTuQWbBqm
aVnU4CvCIUxKqG5qjLdsH06LKndiEdMkmi26S0gxmoEsmGKP06KmYYIGlM2tLDmf1AzECu8voMpB
AqJRKBqPhuIkW7olocb7UYgbE6mO4kxci1s3CSEDM4uP+QShbAwBINTf0TAaO2LF0B2LsvJJwxLF
hmtYmmFSMyqOEL/SCmA30nSsOg0l0JqOZObNMzaMlKVjDqMKGGyBODbhDWC0fWo5doYPVzSKlZUD
gaRklTVzQWklcO9Qw9UHxTVRfDYSBwjKPSpr+aJBjgKWimST2mGSO0tdNIqLR2FM/FLke7gcjKMJ
1S3HMDQqWyp10P4SIc9G2ShsURXcxNa4S2R9j9oyIQlCzTCb5xIU+w01UFCKO8NpVqacDAhCKJ5L
7VB8CkGlw28TE8KdCtHmldBI8TEbiKmGZZZw6Fnjq+XR0bGh5UBIdNDeg3dtQWgKUJ0DocVGHFOc
6EtJC5VOkvDxjWhTI91RbPDROVoaImt2YPAIB8mJEA5WHr4RgXlWdmvHaS47LcniwAEjOlLBQFln
r88OJKX9nKEkic2DyByf84CS1U1OSk2dzAFYrmqkdBpZXs4aSDUCO8LIouGNIpylyO4jGQk+cUzl
MYkQOB2V7VEK3JJN49NRQQdp1EB3QsgQuKubByFHOAutSg4digXKOrIcmfIOm0xJcQiLFCal+9Ny
IKSqfzpQnQOhuINjP5UqLinwSDUvvg0ld/8wMndSOjnbEO6ZUBOr10JLJMRGq2SjAicPwsEQWVNw
5CouxmKAxJopgCS9IHYdfKNXlDknIVBTUcmZ0lzMDMCgY0/crtDUbC0WZyOjykXN0ZuRlVnDAYXi
5oombR06FifagaI7UaPMMSuNZE240xknyNFNxty8shuHhovsJqeTXZ44QY95oTou53DmCYaOxIn9
PeZE3P4gAQmBqG0SlfJCICuxFFckFDh+5dKJQ1hCRxIoKrJUnTrE0HR+AKDjRTSRTFTHxoLRyCsU
s2JQ3aBqplZLo0HLiPtwmoFWSLLrPP3jqKEZWZuTfUxaZxy/WKNcooPDoARUH5Xc4zFR3AbTdHmX
QYSQ4eb2EHS8iraMBcV1GytOk+hoquzyqCtFcMtDajLiG6yo6AkT1DSIk5XkjmKN4tIGn9HLjR07
6hmhHctCW43cesJbjdy+yjlM1DTMoZG9+ZwX5nwg1Q/k3pXcoC334/Sov4aOsnCclI+etIqR06LE
h4ri1EpCLvXjVYxGagThJqpom2L6+IBf46UjWkgTI6P5zV58S2lez9jIHZXSsN85yhzdIjnlztKc
e8JSv8WdWhq+KSH3aQ0MJN1mEx1v8R0hLmrGAHFnSEoWMx8o7Q5aPqbouEo3LMuEcDAbUK50UR8P
dheIg+aYB1YwkHQv6cxAEaOTeYr61ZN5spB0Y8hNsQJxc5+W88QRPwufdgt7PQfIikYz3/JvJ84y
NxuQwJn8O0ai37oj7Sy+W0BNHvODf1tPn5jxo4f1jegx4q1eiz/iW2ZPS88fuXfeaeC2O+yp4rvQ
/eYpbq/nD9yB14cp5S7wwoEfeEp4739nI+yi5IL5+a1DiA3/A7Mewqs=
	]]>
</i:pgf>
</svg>
